PathFileType	4	(X/Y/Z)	C:/Users/opensim2020/Desktop/walking_exp_matlab/subject06_walking15_straight_03.trc																																																																																																																																											
DataRate	CameraRate	NumFrames	NumMarkers	Units	OrigDataRate	OrigDataStartFrame	OrigNumFrames																																																																																																																																							
100	100	7	47	mm	100	2257	193																																																																																																																																							
Frame#	Time	LFHD			RFHD			LBHD			RBHD			C7			T10			CLAV			STRN			RBAK			LSHO			LUPA			LELB			LFRM			LWRA			LWRB			LFIN			RSHO			RUPA			RELB			RFRM			RWRA			RWRB			RFIN			LASI			RASI			LPSI			RPSI			LTHI			LKNE			LTIB			LANK			LHEE			LTOE			RTHI			RKNE			RTIB			RANK			RHEE			RTOE			*39			*40			*41			*42			*43			*44			*45			*46		
		X1	Y1	Z1	X2	Y2	Z2	X3	Y3	Z3	X4	Y4	Z4	X5	Y5	Z5	X6	Y6	Z6	X7	Y7	Z7	X8	Y8	Z8	X9	Y9	Z9	X10	Y10	Z10	X11	Y11	Z11	X12	Y12	Z12	X13	Y13	Z13	X14	Y14	Z14	X15	Y15	Z15	X16	Y16	Z16	X17	Y17	Z17	X18	Y18	Z18	X19	Y19	Z19	X20	Y20	Z20	X21	Y21	Z21	X22	Y22	Z22	X23	Y23	Z23	X24	Y24	Z24	X25	Y25	Z25	X26	Y26	Z26	X27	Y27	Z27	X28	Y28	Z28	X29	Y29	Z29	X30	Y30	Z30	X31	Y31	Z31	X32	Y32	Z32	X33	Y33	Z33	X34	Y34	Z34	X35	Y35	Z35	X36	Y36	Z36	X37	Y37	Z37	X38	Y38	Z38	X39	Y39	Z39	X40	Y40	Z40	X41	Y41	Z41	X42	Y42	Z42	X43	Y43	Z43	X44	Y44	Z44	X45	Y45	Z45	X46	Y46	Z46	X47	Y47	Z47
																																																																																																																																														
121	1.2	75.66814	1639.76001	1356.77795	87.07189	1640.37378	1488.61975	-55.71254	1583.00232	1372.93372	-43.39606	1588.8158	1501.97168	-48.56566	1433.14307	1437.44836	-91.75983	1106.29468	1457.04236	62.18405	1356.14917	1438.11816	100.94846	1184.1604	1443.07019	-121.96433	1269.83911	1529.25647	0.08297	1379.64563	1276.15344	-67.91225	1190.62329	1214.32617	-115.92017	1088.72681	1209.50342	-156.24394	944.90967	1184.1615	-139.62044	812.36383	1213.40869	-202.47974	835.11743	1187.85095	-200.84998	744.00055	1181.41467	18.58668	1397.82141	1597.8009	-12.54093	1210.46423	1705.49976	9.17641	1095.48193	1729.85608	80.10462	1003.6051	1742.57776	204.15953	928.19574	1695.49329	164.0735	896.92346	1739.59766	237.52765	857.8902	1734.29089	94.07459	951.14435	1356.51208	75.47313	951.19525	1574.68884	-67.2877	969.7428	1368.83105	-74.62263	974.3103	1536.69897	93.82188	638.38336	1287.10889	147.50027	488.20743	1320.33069	182.23206	234.00423	1326.90881	232.27762	68.7638	1368.87268	197.47406	46.47649	1416.39368	378.1459	74.95034	1373.40149	-29.53294	614.76044	1611.18872	-54.07799	489.93964	1587.97314	-210.61511	266.87143	1570.45056	-309.18527	110.95016	1518.36499	-355.66562	104.25839	1472.65454	-178.50299	35.5843	1522.4856	-20.47328	1681.65466	1421.11902	NaN	NaN	NaN	NaN	NaN	NaN	NaN	NaN	NaN	NaN	NaN	NaN	NaN	NaN	NaN	NaN	NaN	NaN	NaN	NaN	NaN
122	1.21	85.99959	1639.70166	1356.10437	97.5618	1640.30798	1488.05225	-45.31091	1582.64722	1372.37964	-32.87882	1588.43945	1501.4314	-37.67437	1432.61829	1436.58887	-79.62946	1105.52722	1456.16675	73.22169	1356.05505	1437.31592	112.60615	1184.1803	1442.29492	-110.84314	1269.03638	1528.2627	11.12532	1379.5979	1275.35742	-56.45454	1190.43445	1213.4292	-103.92928	1088.33704	1208.58398	-143.78728	944.34186	1183.36792	-126.94222	811.88324	1213.12451	-189.72235	834.40692	1187.13965	-187.76787	743.32117	1180.83972	29.23939	1397.40637	1597.12292	-1.67649	1209.77625	1704.58801	19.78195	1094.55884	1728.69641	90.11853	1001.8476	1741.91772	213.10822	924.47406	1695.3501	172.33136	893.94269	1739.33154	245.39699	853.90796	1734.52808	107.01569	950.96942	1356.0553	87.7458	951.08099	1574.30127	-54.54916	969.57806	1368.00964	-62.20492	973.841	1536.00488	106.83341	638.4668	1287.08765	159.33379	487.8501	1319.91077	191.12213	233.30717	1327.21155	235.63199	67.76229	1369.31238	199.38611	47.9731	1416.953	381.79877	64.48971	1374.85144	-16.4643	614.06915	1611.52771	-40.29651	488.98242	1588.87903	-202.19394	269.62744	1571.24561	-305.34796	116.73325	1519.34021	-352.04233	112.16074	1473.65137	-178.06923	35.69106	1522.38086	-10.16582	1681.36328	1420.55054	NaN	NaN	NaN	NaN	NaN	NaN	NaN	NaN	NaN	NaN	NaN	NaN	NaN	NaN	NaN	NaN	NaN	NaN	NaN	NaN	NaN
123	1.22	96.33982	1640.29089	1355.47815	107.93957	1640.78748	1487.41968	-34.75678	1582.7041	1371.79919	-22.31019	1588.44116	1500.85339	-27.00819	1432.74133	1435.76428	-67.50938	1105.18848	1455.44104	84.30561	1356.38806	1436.61523	124.06952	1184.51233	1441.51367	-99.81668	1268.6073	1526.92798	22.21242	1379.79321	1274.47375	-44.48369	1190.30591	1212.47595	-91.61121	1087.99438	1207.60156	-130.66373	943.70392	1182.60144	-113.60558	811.31232	1212.92065	-176.02306	833.58435	1186.3136	-173.76949	742.5155	1180.33521	39.97301	1397.32019	1596.48657	9.08158	1209.2876	1703.55127	30.4967	1093.82825	1727.54968	99.66708	999.9953	1741.03577	221.61063	920.53625	1695.21716	180.18146	890.81281	1739.10107	252.60779	849.60443	1734.70789	119.76849	951.32782	1355.66724	100.28281	951.28107	1573.82983	-41.9325	969.95013	1367.28113	-49.74927	973.63763	1535.41772	119.77413	639.17853	1286.75403	170.76584	488.37228	1319.42639	199.51892	233.80284	1327.09973	238.14819	67.43521	1368.79504	201.36841	49.25921	1416.12183	384.67056	57.86665	1376.80005	-2.76422	613.43347	1611.90417	-25.57188	488.01013	1589.73267	-192.75121	272.73251	1571.77539	-300.39752	123.23981	1520.25098	-346.6069	120.79763	1474.52747	-177.52539	35.77268	1522.35901	0.05356	1681.51099	1420.04004	NaN	NaN	NaN	NaN	NaN	NaN	NaN	NaN	NaN	NaN	NaN	NaN	NaN	NaN	NaN	NaN	NaN	NaN	NaN	NaN	NaN
124	1.23	106.74827	1641.39758	1354.93164	118.34013	1641.80847	1486.80115	-24.20257	1583.30554	1371.20789	-11.67403	1588.91296	1500.1897	-16.03472	1433.47266	1434.91467	-55.6849	1105.47607	1454.89856	95.34068	1357.17566	1435.82153	135.39806	1185.28577	1440.66431	-88.72065	1268.81104	1525.5697	33.4276	1380.30469	1273.53943	-32.2034	1190.35571	1211.41858	-78.65049	1087.72559	1206.48682	-116.70426	943.0744	1181.67517	-99.21299	810.90808	1212.60425	-161.52914	832.76703	1185.66711	-158.70419	741.74011	1179.80762	50.8568	1397.69763	1595.93494	19.79059	1209.07446	1702.33643	41.13066	1093.29187	1726.38599	108.70908	998.13574	1739.98535	229.67847	916.41907	1695.04541	187.51103	887.55139	1738.90247	259.07755	845.02539	1734.96021	132.42506	952.35883	1355.10828	112.86819	951.89465	1573.21948	-29.63269	971.1181	1366.84753	-37.19867	973.59344	1535.04102	132.65517	640.99426	1286.3324	182.12238	489.71057	1319.00793	207.1338	234.9705	1326.16321	241.9155	67.39424	1368.38257	203.53711	50.62957	1414.97156	387.55048	54.13309	1377.66577	11.72258	613.0022	1612.34534	-9.7944	487.14551	1590.49841	-182.02684	276.35297	1572.26184	-294.09073	130.45915	1520.87781	-339.83984	130.40718	1475.2793	-176.59364	35.9198	1522.10034	10.26493	1682.19885	1419.50293	NaN	NaN	NaN	NaN	NaN	NaN	NaN	NaN	NaN	NaN	NaN	NaN	NaN	NaN	NaN	NaN	NaN	NaN	NaN	NaN	NaN
125	1.24	117.28501	1642.7738	1354.37354	128.84836	1643.04126	1486.27649	-13.46861	1584.26831	1370.52649	-1.06301	1589.78369	1499.59473	-4.66541	1434.67261	1434.00574	-43.81097	1106.28308	1454.47437	106.40949	1358.34485	1435.20728	146.57967	1186.39734	1439.80261	-77.52634	1269.4585	1524.48303	44.82518	1381.24316	1272.63049	-19.46211	1190.61182	1210.44165	-65.16957	1087.66943	1205.3999	-102.00549	942.60913	1180.86548	-83.85258	810.72443	1212.31531	-146.14233	832.0614	1184.83777	-142.49919	741.06409	1179.33154	62.01831	1398.47192	1595.42505	30.53334	1209.35083	1700.93445	51.89925	1093.15564	1725.1593	117.6603	996.45575	1738.91821	237.10071	912.13953	1695.01929	194.03584	884.31006	1738.48291	265.34641	840.68231	1735.82349	144.99307	954.17786	1354.52588	125.69135	952.84143	1572.55762	-17.51284	972.7666	1366.90088	-24.47065	973.77954	1534.90369	145.38698	643.67194	1286.21729	193.2513	491.37396	1318.56116	214.0786	236.32582	1324.90723	244.62029	67.66229	1367.94202	205.74327	51.79455	1414.37939	389.9313	50.79446	1377.95825	27.01424	612.79907	1612.80798	7.32486	486.44659	1591.2948	-169.67163	280.2211	1572.72827	-286.26019	138.19722	1521.29724	-331.15244	140.48312	1475.47815	-175.13728	36.35453	1521.47058	20.64988	1683.2218	1418.95764	NaN	NaN	NaN	NaN	NaN	NaN	NaN	NaN	NaN	NaN	NaN	NaN	NaN	NaN	NaN	NaN	NaN	NaN	NaN	NaN	NaN
126	1.25	127.84592	1644.22778	1353.86548	139.37936	1644.39392	1485.77332	-2.6646	1585.50452	1369.85083	9.57815	1590.89758	1498.9209	6.35246	1436.03259	1433.34839	-32.31138	1107.51306	1454.31018	117.37446	1359.65088	1434.4928	157.71352	1187.81519	1438.95337	-66.08578	1270.47595	1523.54919	56.24817	1382.54614	1271.92383	-6.40501	1191.10437	1209.47571	-51.09586	1087.74023	1204.33154	-86.47025	942.34082	1179.91345	-66.98319	810.89532	1211.63928	-129.7484	831.31372	1183.94495	-125.27451	740.40741	1178.69336	73.32311	1399.63306	1594.87939	41.28297	1210.05908	1699.40515	62.52021	1093.41516	1723.47803	126.29086	995.14514	1737.75928	243.85896	907.80566	1695.05359	200.12881	881.0426	1738.0238	269.61951	835.59534	1735.59644	157.58699	956.65479	1353.78381	138.4545	954.04663	1571.73425	-5.60468	974.50208	1367.23633	-11.70911	974.19897	1534.95825	157.72275	646.40179	1286.07629	203.51131	492.97888	1318.05298	220.66875	237.03572	1323.76379	246.36877	67.71233	1367.75464	206.86346	52.56421	1413.91321	390.9895	47.75256	1378.05347	42.98156	612.84851	1613.2373	24.82572	486.30331	1592.68372	-155.92958	284.39874	1573.18176	-276.83502	146.27927	1521.46338	-320.617	151.11003	1475.27759	-173.32288	36.64545	1521.05676	31.14775	1684.43811	1418.48083	NaN	NaN	NaN	NaN	NaN	NaN	NaN	NaN	NaN	NaN	NaN	NaN	NaN	NaN	NaN	NaN	NaN	NaN	NaN	NaN	NaN
127	1.26	138.51373	1645.75879	1353.38721	149.95972	1645.78748	1485.27673	7.99543	1586.78931	1369.28394	20.25664	1592.06384	1498.33838	17.28699	1437.50757	1432.74731	-20.73005	1108.90271	1454.11389	128.25992	1361.10046	1433.84094	168.92982	1189.37036	1438.04712	-54.78949	1271.87451	1522.96069	67.54214	1384.1145	1271.20813	7.04315	1191.80518	1208.40735	-36.60866	1088.00708	1203.25708	-69.85694	941.96649	1179.28833	-49.63678	810.98547	1211.77014	-112.35281	830.58838	1182.99951	-107.01224	739.80518	1178.1532	84.66958	1401.0061	1594.15198	52.0748	1211.08887	1697.875	73.13742	1094.05615	1721.5542	134.79739	994.08429	1736.54517	250.09778	903.45404	1695.10535	205.33961	877.88538	1737.32056	273.70511	830.70465	1735.88306	169.62138	959.26813	1352.98218	151.11224	955.38983	1570.70837	6.27506	976.22168	1367.56335	0.9436	974.79974	1535.05835	169.4465	648.76086	1285.89209	213.07573	494.21777	1317.44958	226.52742	237.28423	1323.47107	247.56348	67.66296	1367.93616	207.51581	53.16155	1413.87183	392.13467	46.22014	1378.1958	59.35458	613.1413	1613.76794	43.34309	486.31339	1594.42822	-141.36949	289.0578	1573.64209	-266.18069	154.91278	1521.64685	-308.42383	162.31241	1474.78772	-172.1563	36.68102	1520.55383	41.69019	1685.7948	1418.0094	NaN	NaN	NaN	NaN	NaN	NaN	NaN	NaN	NaN	NaN	NaN	NaN	NaN	NaN	NaN	NaN	NaN	NaN	NaN	NaN	NaN
